<svg width="34" height="24" viewBox="0 0 34 24" fill="none" xmlns="http://www.w3.org/2000/svg">
<path fill-rule="evenodd" clip-rule="evenodd" d="M33.0018 18.8182C32.8366 18.4909 32.5063 18.2182 32.176 18.0545L27.9917 16.4727L26.285 15.8727C25.7895 15.6545 25.349 15.3273 25.0738 14.8909L23.6423 12.5455C23.9176 12.4909 24.0828 12.2727 24.0828 12C24.0828 11.6727 23.8625 11.4545 23.5322 11.4545H22.9816L22.321 10.3636C22.5962 10.3091 22.7614 10.0909 22.7614 9.81818C22.7614 9.49091 22.5412 9.27273 22.2109 9.27273H21.6603L21.1097 8.4C21.33 8.34545 21.4951 8.12727 21.4951 7.90909C21.4951 7.58182 21.2749 7.36364 20.9446 7.36364H20.4491L19.7333 6.21818C19.7333 6.21818 19.7333 6.16364 19.6783 6.16364C19.0176 5.4 18.1367 5.01818 17.2008 5.12727C16.3749 5.23636 15.7143 5.72727 15.439 6.32727C15.3839 6.49091 15.3839 6.65454 15.494 6.81818L20.0637 14.5636C20.1187 14.6727 20.2288 14.7818 20.339 14.7818L25.9546 16.9091H26.0097L27.6614 17.5091L31.7906 19.0909C31.9007 19.1455 32.0108 19.2 32.0658 19.3636C32.2861 19.8 32.2861 20.2364 32.0108 20.6727H23.0367C22.4861 20.6727 21.9356 20.5091 21.4951 20.1818L6.13455 8.89091C6.13455 8.89091 6.35477 8.78182 6.63005 8.4C6.90533 8.01818 7.01544 7.52727 7.01544 7.03636L6.51994 2.45454L7.18061 1.41818C7.34577 1.2 7.67611 1.14545 7.89633 1.30909C7.90846 1.3211 7.92325 1.33517 7.94089 1.35195C8.16355 1.5637 8.83941 2.20642 10.3188 4.58182C11.1446 5.78182 12.466 6.65454 13.9525 6.87273C14.2278 6.92727 14.5581 6.70909 14.6131 6.43636C14.6682 6.16363 14.448 5.83636 14.1727 5.78182C13.0165 5.56364 11.9154 4.90909 11.2547 3.92727C9.3278 0.981817 8.77723 0.545453 8.557 0.381817C7.84128 -0.109092 6.85027 0.0545442 6.29971 0.763635L2.94131 6.05454C2.72108 6.38182 2.66603 6.76364 2.72108 7.14545C2.39075 7.25454 2.06041 7.41818 1.89525 7.74545L1.01435 9.10909C0.51885 9.81818 0.73907 10.8 1.4548 11.2909C1.88266 11.6206 2.72103 12.1537 3.93445 12.9252L3.93549 12.9258C4.12701 13.0476 4.32787 13.1753 4.53793 13.3091C4.64804 13.3636 4.75815 13.4182 4.81321 13.4182C4.97837 13.4182 5.14354 13.3091 5.25365 13.1455C5.41882 12.8727 5.36376 12.5455 5.08849 12.3818C4.61614 12.0698 4.18827 11.7909 3.80841 11.5433C2.99283 11.0116 2.39846 10.6241 2.06041 10.3636C1.84019 10.2 1.78513 9.92727 1.9503 9.65454L2.77614 8.4C2.94131 8.18182 3.27164 8.12727 3.49187 8.29091L20.7794 21.0545C21.4401 21.5455 22.2109 21.7636 22.9816 21.7636H30.5793C29.4232 22.3091 27.8265 22.8 26.4502 22.8H24.5232H22.9266C21.9906 22.8 21.0547 22.5273 20.2839 22.0364C17.0907 20.0182 11.1446 16.2545 6.79522 13.4727C6.51994 13.3091 6.1896 13.3636 6.02443 13.6364C5.85927 13.9091 5.91432 14.2364 6.1896 14.4C8.97996 16.1951 12.4382 18.392 15.4025 20.2751C16.9418 21.2529 18.3478 22.1461 19.4581 22.8545H5.25365C4.92332 22.8545 4.70309 23.0727 4.70309 23.4C4.70309 23.7273 4.92332 23.9455 5.25365 23.9455H22.9266H24.5232H26.3951C28.6524 23.9455 31.9007 22.7455 32.7265 21.6C33.4422 20.6182 33.4973 19.6909 33.0018 18.8182ZM20.8345 13.9091L16.5401 6.65454C16.7053 6.49091 16.9805 6.32727 17.3109 6.27273C17.6412 6.21818 18.2468 6.27273 18.7974 6.87273L19.1277 7.41818H18.6322C18.3019 7.41818 18.0817 7.63636 18.0817 7.96364C18.0817 8.29091 18.3019 8.50909 18.6322 8.50909H19.7884L20.339 9.38182H19.8985C19.5682 9.38182 19.3479 9.6 19.3479 9.92727C19.3479 10.2545 19.5682 10.4727 19.8985 10.4727H20.9996L21.6603 11.5091H21.2198C20.8895 11.5091 20.6693 11.7273 20.6693 12.0545C20.6693 12.3818 20.8895 12.6 21.2198 12.6H22.321L23.8625 15L20.8345 13.9091ZM5.58399 3.98182L3.87726 6.65454C3.76714 6.87273 3.8222 7.14545 4.15254 7.41818C4.64804 7.8 4.92332 7.96364 4.92332 7.96364C5.38152 8.31671 5.60433 7.97015 5.72235 7.78658C5.73195 7.77163 5.74087 7.75777 5.74916 7.74545C5.85927 7.58182 5.91432 7.36364 5.91432 7.14545L5.58399 3.98182Z" fill="white"/>
</svg>
